[CENTER][IMG]http://desibbrg.org/images/66952052392581364616.gif[/IMG]
 
http://desibbrg.org/images/78111455057018954650.jpg
 
http://desibbrg.org/images/56434656599108269950.jpg
 
http://desibbrg.org/images/58726212422846752148.jpg

Media Info - 
General
Unique ID                        : 219713029162294270761521123843794476753 (0xA54B30B12E5BCED083D6DEA2545F1ED1)

Format                           : Matroska
File size                        : 2.83 GiB
Duration                         : 2h 13mn
Overall bit rate                 : 3 045 Kbps
Movie name                       : Ek Tha Tiger (2012)
Encoded date                     : UTC 2012-10-11 20:55:08
Writing application              : mkvmerge v4.8.0 ('I Got The...') built on May 24 2011 03:12:58
Writing library                  : libebml v1.2.0 + libmatroska v1.1.0

Video
ID                               : 1
Format                           : AVC
Format/Info                      : Advanced Video Codec
Format profile                   : High@L4.1
Format settings, CABAC           : Yes
Format settings, ReFrames        : 8 frames
Muxing mode                      : Header stripping
Codec ID                         : V_MPEG4/ISO/AVC
Duration                         : 2h 13mn
Bit rate                         : 2 626 Kbps
Width                            : 1 280 pixels
Height                           : 544 pixels
Display aspect ratio             : 2.35:1
Frame rate                       : 24.000 fps
Color space                      : YUV
Chroma subsampling               : 4:2:0
Bit depth                        : 8 bits
Scan type                        : Progressive
Bits/(Pixel*Frame)               : 0.157
Stream size                      : 2.42 GiB (85%)
Writing library                  : x264 core 125 r2208 d9d2288

Language                         : English

Audio
ID                               : 2
Format                           : AC-3
Format/Info                      : Audio Coding 3
Mode extension                   : CM (complete main)
Muxing mode                      : Header stripping
Codec ID                         : A_AC3
Duration                         : 2h 13mn
Bit rate mode                    : Constant
Bit rate                         : 384 Kbps
Channel(s)                       : 6 channels
Channel positions                : Front: L C R, Side: L R, LFE
Sampling rate                    : 48.0 KHz
Bit depth                        : 16 bits
Compression mode                 : Lossy
Stream size                      : 365 MiB (13%)
Language                         : Hindi

Ripper : NhaNc3

Seeding 24x7... Extreme Seeding...


Enjoy!
